{
    "asset" : {
        "generator" : "Khronos glTF Blender I/O v3.3.27",
        "version" : "2.0"
    },
    "scene" : 0,
    "scenes" : [
        {
            "name" : "Scene",
            "nodes" : [
                0,
                1
            ]
        }
    ],
    "nodes" : [
        {
            "mesh" : 0,
            "name" : "Circle"
        },
        {
            "name" : "Empty",
            "rotation" : [
                0.5,
                0.5,
                -0.5,
                0.5
            ],
            "translation" : [
                -7.022273540496826,
                5.988645553588867,
                0
            ]
        }
    ],
    "materials" : [
        {
            "doubleSided" : true,
            "name" : "Material",
            "pbrMetallicRoughness" : {
                "baseColorFactor" : [
                    0.8713663220405579,
                    0.8713664412498474,
                    0.7454043626785278,
                    1
                ],
                "metallicFactor" : 0,
                "roughnessFactor" : 0.5
            }
        }
    ],
    "meshes" : [
        {
            "name" : "Circle",
            "primitives" : [
                {
                    "attributes" : {
                        "POSITION" : 0,
                        "NORMAL" : 1,
                        "TEXCOORD_0" : 2
                    },
                    "indices" : 3,
                    "material" : 0
                }
            ]
        }
    ],
    "accessors" : [
        {
            "bufferView" : 0,
            "componentType" : 5126,
            "count" : 1294,
            "max" : [
                0.8794009685516357,
                2.590372323989868,
                0.8794009685516357
            ],
            "min" : [
                -0.8794009685516357,
                0.00038556952495127916,
                -0.8794009685516357
            ],
            "type" : "VEC3"
        },
        {
            "bufferView" : 1,
            "componentType" : 5126,
            "count" : 1294,
            "type" : "VEC3"
        },
        {
            "bufferView" : 2,
            "componentType" : 5126,
            "count" : 1294,
            "type" : "VEC2"
        },
        {
            "bufferView" : 3,
            "componentType" : 5123,
            "count" : 2052,
            "type" : "SCALAR"
        }
    ],
    "bufferViews" : [
        {
            "buffer" : 0,
            "byteLength" : 15528,
            "byteOffset" : 0,
            "target" : 34962
        },
        {
            "buffer" : 0,
            "byteLength" : 15528,
            "byteOffset" : 15528,
            "target" : 34962
        },
        {
            "buffer" : 0,
            "byteLength" : 10352,
            "byteOffset" : 31056,
            "target" : 34962
        },
        {
            "buffer" : 0,
            "byteLength" : 4104,
            "byteOffset" : 41408,
            "target" : 34963
        }
    ],
    "buffers" : [
        {
            "byteLength" : 45512,
            "uri" : "knight.bin"
        }
    ]
}
