{
    "asset" : {
        "generator" : "Khronos glTF Blender I/O v3.3.27",
        "version" : "2.0"
    },
    "scene" : 0,
    "scenes" : [
        {
            "name" : "Scene",
            "nodes" : [
                0
            ]
        }
    ],
    "nodes" : [
        {
            "mesh" : 0,
            "name" : "Circle"
        }
    ],
    "materials" : [
        {
            "doubleSided" : true,
            "name" : "Material",
            "pbrMetallicRoughness" : {
                "baseColorFactor" : [
                    0.0047769490629434586,
                    0.004776949994266033,
                    0.004776954185217619,
                    1
                ],
                "metallicFactor" : 0,
                "roughnessFactor" : 0.5
            }
        }
    ],
    "meshes" : [
        {
            "name" : "Circle",
            "primitives" : [
                {
                    "attributes" : {
                        "POSITION" : 0,
                        "NORMAL" : 1,
                        "TEXCOORD_0" : 2
                    },
                    "indices" : 3,
                    "material" : 0
                }
            ]
        }
    ],
    "accessors" : [
        {
            "bufferView" : 0,
            "componentType" : 5126,
            "count" : 3140,
            "max" : [
                0.6816909909248352,
                2.0106987953186035,
                0.6816909909248352
            ],
            "min" : [
                -0.6816909909248352,
                0.0011293329298496246,
                -0.6816909909248352
            ],
            "type" : "VEC3"
        },
        {
            "bufferView" : 1,
            "componentType" : 5126,
            "count" : 3140,
            "type" : "VEC3"
        },
        {
            "bufferView" : 2,
            "componentType" : 5126,
            "count" : 3140,
            "type" : "VEC2"
        },
        {
            "bufferView" : 3,
            "componentType" : 5123,
            "count" : 4794,
            "type" : "SCALAR"
        }
    ],
    "bufferViews" : [
        {
            "buffer" : 0,
            "byteLength" : 37680,
            "byteOffset" : 0,
            "target" : 34962
        },
        {
            "buffer" : 0,
            "byteLength" : 37680,
            "byteOffset" : 37680,
            "target" : 34962
        },
        {
            "buffer" : 0,
            "byteLength" : 25120,
            "byteOffset" : 75360,
            "target" : 34962
        },
        {
            "buffer" : 0,
            "byteLength" : 9588,
            "byteOffset" : 100480,
            "target" : 34963
        }
    ],
    "buffers" : [
        {
            "byteLength" : 110068,
            "uri" : "pawn.bin"
        }
    ]
}
